#!OML:ASF F:\VICON\USERDATA\INSTALL\rory3\rory3.ASF
:FULLY-SPECIFIED
:DEGREES
17
root 0.5708495176920024 18.148882109018945 -18.31728844163335 -3.5263529385834014 -0.4358938726157242 -4.630973454824252
lfemur -9.413360021386918 0.506654732728796 -14.889607656262957
ltibia 65.48798062111527
lfoot 10.12168134967898 -14.173381682292831
ltoes -6.862005026503801
rfemur -14.97749926897217 6.482003518938448 29.49909435676682
rtibia 29.18830524001816
rfoot -8.577560343690637 -4.967023112844336
rtoes 9.102620783601445
lowerback 11.856484210309743 -1.15703028191696 2.6081553572052147
upperback -0.42363369082739444 -0.9520653712895386 3.0802436567054334
thorax -7.107057513222475 -0.5001245622990496 1.9560865731992032
lowerneck -15.586103674989948 -2.7404930894429245 -2.304532521648351
upperneck 23.38279639525989 -3.081096074654274 -0.679166117238594
head 10.045497759789964 -1.713463234986306 -0.25785772172329513
lclavicle -1.3874280347414164e-15 -1.8436986327867626e-15
lhumerus -29.68650114087263 3.653289313544721 81.8654967184585
lradius 26.505596297841283
lwrist 2.8132909722598445
lhand -27.98039812364167 22.1137044870716
lfingers 7.125019999999999
lthumb -1.3669881238937758 52.08910443195744
rclavicle -1.3874280347414164e-15 -1.8436986327867626e-15
rhumerus -35.24669221307881 -27.314795110921807 -71.08960696664508
rradius 19.175610719270676
rwrist 11.774090927089114
rhand -17.26950730064349 22.434599579718213
rfingers 7.125019999999999
rthumb 8.975282698542257 -7.354470604201003
18
root 0.5306084967357326 18.179180245834875 -17.657089097514273 -3.6433920521827927 -1.3544205388954755 -4.77073303308919
lfemur -14.193197020998614 2.0080419082805046 -14.639208273351056
ltibia 67.41138021209221
lfoot 1.9346292793196254 -8.550580164257362
ltoes -1.2122635135447686
rfemur -12.036201271402087 6.982732034125982 30.240593275793277
rtibia 28.91930569204879
rfoot -10.534597936826195 -3.790215990253195
rtoes 5.040667380031087
lowerback 11.661186212623226 -0.6206588719096884 2.7170651104837287
upperback -0.20897396538770815 -0.2569944176825302 2.8586061091735
thorax -6.777141857301784 -0.16745075439050006 1.5280483479220068
lowerneck -15.5155045918678 -2.891579285871552 -2.3898711396252654
upperneck 23.510895599357262 -3.3666322458371196 -0.3118562120288534
head 10.08889700092168 -1.8093995077012863 -0.15270787092407992
lclavicle -1.3874280642612796e-15 -1.8436985033358366e-15
lhumerus -30.86279905136656 4.708497301346603 81.99199602147672
lradius 26.04939712089651
lwrist 2.5402516900644767
lhand -27.897798446100563 23.175301523299137
lfingers 7.125019999999999
lthumb -1.287198463551743 53.15120148107725
rclavicle -1.3874280642612796e-15 -1.8436985033358366e-15
rhumerus -32.745395701813045 -25.32859739695348 -73.37790319459859
rradius 19.909309119784343
rwrist 9.999423953070053
rhand -16.078217066947953 21.773603363433274
rfingers 7.125019999999999
rthumb 10.12468296317085 -7.962777147085165
19
root 0.5035911534337679 18.153481835668757 -17.012889588600288 -3.3081246604780885 -2.2133064540217857 -4.931382637558261
lfemur -18.873293846944712 2.962078239498667 -14.61040820788529
ltibia 67.02797991161971
lfoot -2.705465413100498 -5.349195139916466
ltoes -3.8797193991136827
rfemur -10.374702719510406 7.269591080513991 30.909092101410625
rtibia 29.22830488504829
rfoot -12.253195809281484 -5.787921046642299
rtoes 5.384596841672284
lowerback 11.536487479897392 0.05442060067569404 3.18690390416847
upperback -0.3032061204096588 0.667937517649585 2.3494518055875915
thorax -6.799681596778648 0.2585261281210907 0.5654154192458296
lowerneck -15.818200674020183 -3.1899717791102233 -1.8659995745841298
upperneck 23.876493152530614 -3.936134625683124 -0.2565658185513239
head 10.272593763142206 -2.015931496589405 -0.3058882877516754
lclavicle -1.3874280504791363e-15 -1.8436986314023275e-15
lhumerus -32.02399704460567 4.616187467994991 81.9255964083785
lradius 25.591697964952242
lwrist 2.4673618771269825
lhand -27.837498701438292 19.339612055229985
lfingers 7.125019999999999
lthumb -1.2289786919189947 49.31581205570593
rclavicle -1.3874280504791363e-15 -1.8436986314023275e-15
rhumerus -30.750298582575972 -22.886400413357727 -75.90969928114055
rradius 21.450606087504422
rwrist 7.415797932889084
rhand -17.17050808309682 24.480187864624014
rfingers 7.125019999999999
rthumb 9.07081186001575 -5.304792254179772
20
root 0.4873605478297849 18.114784226410052 -16.38068794167407 -3.0809664508653225 -2.4762052150785445 -5.475451120468536
lfemur -22.944791016160384 2.625109673579596 -14.199208805890947
ltibia 64.09458217976356
lfoot -5.627152337763446 -2.9776787829437086
ltoes -6.571255212636158
rfemur -8.301783997189311 7.285921017216051 31.90229081279007
rtibia 29.60440472054637
rfoot -14.418293012334301 -6.5939490235236216
rtoes 4.962637552264664
lowerback 11.67608602383707 0.3162147292575604 3.838182067134744
upperback -0.42164373573238667 1.1108675685911091 2.245732938605011
thorax -6.986039142361991 0.4464863208716119 0.013075968179630637
lowerneck -15.541004257054732 -3.21430115119492 -1.8353800677793302
upperneck 23.62449482166744 -3.9813140252862875 -0.24968990759180032
head 10.128296313678716 -2.034160786153649 -0.3062702802995374
lclavicle -1.3874280789979016e-15 -1.8436986033661214e-15
lhumerus -33.63669404883853 5.220016322828723 81.95119625040248
lradius 25.70419777006425
lwrist 3.375569541390116
lhand -26.149205469842094 22.354703771990327
lfingers 7.125019999999999
lthumb 0.4016016115146479 52.33410372845529
rclavicle -1.3874280789979016e-15 -1.8436986033661214e-15
rhumerus -28.93780120346234 -19.17020507451523 -78.07239590247667
rradius 23.760401574560422
rwrist 4.1291830387782475
rhand -15.378822805528067 16.549933280908487
rfingers 7.125019999999999
rthumb 10.799377225219816 -13.152367431386379
21
root 0.5107678255110086 18.147727221585217 -12.617548341290815 -2.635761041463242 -2.765803855144334 -6.2813764534218794
lfemur -25.66024908034396 2.676999868758652 -13.888634290168316
ltibia 58.536898957942014
lfoot -11.229782864087948 -0.43446361420844815
ltoes -5.619026770105542
rfemur -6.100920094809467 7.316580353602754 32.68883263347419
rtibia 29.71768605035497
rfoot -16.860611666368683 -7.384143844255336
rtoes 3.160013381845979
lowerback 11.860601640221859 0.6296278128991134 4.600612410257476
upperback -0.3683883478863783 1.6446960588298465 2.2470943002055965
thorax -6.507774989532463 0.6373839335801299 -0.6816649576610692
lowerneck -16.131484160055063 -3.1295835049921283 -1.7426991309277882
upperneck 23.37499894438829 -3.9065294656293266 -0.19941045924616388
head 10.054366103452384 -1.9805304566607955 -0.30189821547739343
lclavicle -1.3901084215755453e-15 -1.8574437496099676e-15
lhumerus -34.19151027053152 5.8588949929624885 81.955740655146
lradius 25.5721661056651
lwrist 3.5734820574370025
lhand -26.404820146707852 23.290235731259884
lfingers 7.125019999999999
lthumb 0.11106293516357502 53.287140867800616
rclavicle -1.3883494537205775e-15 -1.8445805739962356e-15
rhumerus -26.654061700835488 -17.05757659264779 -79.4647732750287
rradius 25.12896268590684
rwrist 2.212245005721299
rhand -17.071486110276446 20.699395818251453
rfingers 7.125019999999999
rthumb 9.015932635192463 -9.458004509557776
22
root 0.5231237638751706 18.149458866714248 -11.55794729389603 -2.2357823736228886 -3.0646343084801684 -6.749040914683762
lfemur -27.583076848212684 2.190071906222836 -13.677345538188455
ltibia 50.67867730262461
lfoot -11.164563708797946 0.44559430128718525
ltoes -4.416106615096093
rfemur -4.072702627829733 7.4444842597132785 33.15590858146853
rtibia 29.3383849673276
rfoot -19.26162920041343 -8.114211349538301
rtoes 2.5262888227970697
lowerback 11.721072772469219 0.8922805437089989 5.042502549752634
upperback -0.2635123775454917 2.012065037274926 2.2668003983181766
thorax -6.271119580194518 0.8152680148884313 -1.1145635964088803
lowerneck -16.13575925901902 -3.104435204077816 -1.6053390463316741
upperneck 23.26053041768276 -3.7640617082062957 -0.34575793449191244
head 10.20533986784059 -1.9496185549858887 -0.3614112781759068
lclavicle -1.39016179105729e-15 -1.8574593561071285e-15
lhumerus -34.73973018213343 7.23246959142424 81.747169985065
lradius 25.229338448515783
lwrist 3.5110312624040745
lhand -26.829440156965465 23.3065595364076
lfingers 7.125019999999999
lthumb -0.36380224682431017 53.345047605479024
rclavicle -1.3883648820618014e-15 -1.8445951294755082e-15
rhumerus -24.5618621509203 -15.062489514669702 -80.31829627510652
rradius 26.432278626357313
rwrist 0.7753491847698415
rhand -17.29356770427588 21.54205421286868
rfingers 7.125019999999999
rthumb 8.955891869183013 -8.545414006575664
23
root 0.5398659485415762 18.130858369220583 -10.974614242256814 -1.7722378491656232 -3.2369139507570033 -6.892925765017454
lfemur -28.469993095750993 0.8949670959987204 -13.192321580294598
ltibia 40.701455019923465
lfoot -12.359680774821431 0.7107936889758535
ltoes -3.981855260392997
rfemur -1.9185719644540153 7.467341068841543 33.60566158732024
rtibia 28.471168388015236
rfoot -21.07802761137839 -8.609171486770272
rtoes 2.4758722185968836
lowerback 11.393015478650186 1.1422279525918462 5.490347287344069
upperback -0.2622016607746417 2.2708828903805767 2.2219269395218446
thorax -6.081981840290156 0.966929448761874 -1.4006495709866547
lowerneck -16.12476482040833 -3.0943456230752617 -1.467386726410872
upperneck 23.01081516289035 -3.8109818079750797 -0.41321830012636895
head 10.025373668104722 -1.9615990530465193 -0.3954373446094228
lclavicle -1.3901958885397484e-15 -1.8574564228581447e-15
lhumerus -35.47034094587141 9.049113155979953 81.31231400604382
lradius 24.48590092637332
lwrist 3.2959228036966355
lhand -27.031616000600014 23.059805449306392
lfingers 7.125019999999999
lthumb -0.6015436798822582 53.06281998753086
rclavicle -1.388374211162594e-15 -1.844604114320872e-15
rhumerus -22.98415338321078 -13.427017450087408 -80.73290752493246
rradius 27.472658658413998
rwrist -0.26182637816126864
rhand -16.950330903896415 21.95803665056192
rfingers 7.125019999999999
rthumb 9.187019081659397 -7.891512137348059
24
root 0.5605651381467038 18.09361949431301 -10.475765108642344 -1.2941358556703004 -3.38268254018495 -6.968694036450273
lfemur -28.498758875959055 -1.533633916314615 -12.123013593268553
ltibia 29.66213777177641
lfoot -11.721989376634651 1.3624044680356047
ltoes -4.261631019752204
rfemur 0.28066844985935013 7.344098550649808 33.87706975009808
rtibia 27.447886335170033
rfoot -21.43385508727792 -8.550690941011945
rtoes 1.8435116264520168
lowerback 11.053511595143002 1.3501710153730893 5.656054161720333
upperback -0.35441986330509867 2.4214964764178992 2.1832308278842314
thorax -5.963190995016828 1.1198356807419918 -1.634924521289144
lowerneck -15.994952603835877 -3.1185268752880138 -1.3935762237974214
upperneck 22.567146306818277 -3.998756149083295 -0.2882124889122858
head 9.857034923592263 -2.0035426937025194 -0.3607675257852132
lclavicle -1.3902075582966247e-15 -1.8574341000792335e-15
lhumerus -36.107214799720545 10.809996591887955 80.64507230293258
lradius 23.325110391917367
lwrist 2.6738453521372727
lhand -26.95180848910682 22.984575101110245
lfingers 7.125019999999999
lthumb -0.414452097859573 53.14111975654189
rclavicle -1.3883785011030255e-15 -1.8446077871228904e-15
rhumerus -21.58056492076704 -12.37732845767135 -81.00042832358506
rradius 28.461740395272184
rwrist -1.2075881678727303
rhand -17.179133282519736 21.901983422691018
rfingers 7.125019999999999
rthumb 9.10850188999889 -7.756672453884853
